<?xml version="1.0" encoding="UTF-8" standalone="no"?>
<!-- Created with Inkscape (http://www.inkscape.org/) -->

<svg
   xmlns:dc="http://purl.org/dc/elements/1.1/"
   xmlns:cc="http://creativecommons.org/ns#"
   xmlns:rdf="http://www.w3.org/1999/02/22-rdf-syntax-ns#"
   xmlns:svg="http://www.w3.org/2000/svg"
   xmlns="http://www.w3.org/2000/svg"
   xmlns:sodipodi="http://sodipodi.sourceforge.net/DTD/sodipodi-0.dtd"
   xmlns:inkscape="http://www.inkscape.org/namespaces/inkscape"
   width="650"
   height="143.40553"
   id="svg2"
   version="1.1"
   inkscape:version="0.48.4 r9939"
   sodipodi:docname="Neues Dokument 1">
  <defs
     id="defs4" />
  <sodipodi:namedview
     id="base"
     pagecolor="#ffffff"
     bordercolor="#666666"
     borderopacity="1.0"
     inkscape:pageopacity="0.0"
     inkscape:pageshadow="2"
     inkscape:zoom="0.98994949"
     inkscape:cx="446.23564"
     inkscape:cy="-97.098804"
     inkscape:document-units="px"
     inkscape:current-layer="layer1"
     showgrid="false"
     fit-margin-top="0"
     fit-margin-left="0"
     fit-margin-right="0"
     fit-margin-bottom="0"
     inkscape:window-width="1871"
     inkscape:window-height="1056"
     inkscape:window-x="49"
     inkscape:window-y="24"
     inkscape:window-maximized="1" />
  <metadata
     id="metadata7">
    <rdf:RDF>
      <cc:Work
         rdf:about="">
        <dc:format>image/svg+xml</dc:format>
        <dc:type
           rdf:resource="http://purl.org/dc/dcmitype/StillImage" />
        <dc:title></dc:title>
      </cc:Work>
    </rdf:RDF>
  </metadata>
  <g
     inkscape:label="Ebene 1"
     inkscape:groupmode="layer"
     id="layer1"
     transform="translate(-8.5041866,-902.31235)">
    <g
       transform="matrix(0.39834949,0,0,0.39834949,8.5042003,902.31244)"
       id="g3092"
       style="fill:#666666;fill-opacity:1">
      <path
         style="fill:#666666;fill-opacity:1"
         inkscape:connector-curvature="0"
         d="m 133.201,30.365 c 3.594,2.063 6.763,4.666 9.103,7.694 l 51.955,67.189 c 3.789,4.901 5.306,11.048 4.162,16.866 -0.437,2.208 -1.245,4.341 -2.374,6.31 7.555,2.348 14.395,6.312 20.123,11.483 4.842,-3.068 7.694,-9.104 6.855,-15.288 l -11.4,-84.756 C 210.43,31.032 202.54,20.939 194.092,18.097 L 142.289,0.787 c -8.446,-2.841 -14.05,2.275 -12.452,11.043 l 3.364,18.535 z"
         id="path3094" />
      <path
         style="fill:#666666;fill-opacity:1"
         inkscape:connector-curvature="0"
         d="m 64.663,73.812 c 4.145,-0.011 8.191,0.659 11.731,2.112 l 78.586,32.208 c 5.731,2.35 10.118,6.917 12.037,12.526 0.735,2.155 1.085,4.412 1.065,6.678 3.836,-0.864 7.821,-1.336 11.918,-1.336 3.762,0 7.432,0.387 10.975,1.118 2.83,-5.056 2.383,-11.751 -1.494,-16.766 L 137.282,42.739 C 131.832,35.688 119.977,30.935 111.239,32.697 L 57.734,43.633 C 49,45.395 46.71,52.64 52.477,59.434 l 12.186,14.378 z"
         id="path3096" />
      <path
         style="fill:#666666;fill-opacity:1"
         inkscape:connector-curvature="0"
         d="m 9.287,139.35 17.742,6.358 c 3.584,-2.081 7.424,-3.523 11.217,-4.037 l 84.16,-11.402 c 6.138,-0.831 12.162,0.932 16.628,4.829 1.729,1.512 3.159,3.31 4.269,5.303 5.595,-5.188 12.291,-9.198 19.698,-11.654 -0.077,-5.806 -3.839,-11.396 -9.716,-13.805 L 74.329,82.487 C 66.083,79.106 53.467,80.918 46.782,86.815 L 5.926,123.038 c -6.683,5.892 -5.03,13.312 3.361,16.312 z"
         id="path3098" />
      <path
         style="fill:#666666;fill-opacity:1"
         inkscape:connector-curvature="0"
         d="m 38.08,217.686 67.185,-51.957 c 4.901,-3.789 11.186,-5.383 17.003,-4.242 2.177,0.43 4.275,1.212 6.211,2.303 2.336,-7.433 6.239,-14.17 11.318,-19.832 -3.01,-4.94 -9.09,-7.849 -15.36,-7 L 39.785,148.36 c -8.831,1.196 -18.875,9.086 -21.716,17.537 L 0.786,217.703 c -2.841,8.443 2.288,14.05 11.055,12.453 l 18.544,-3.367 c 2.064,-3.592 4.668,-6.76 7.695,-9.103 z"
         id="path3100" />
      <path
         style="fill:#666666;fill-opacity:1"
         inkscape:connector-curvature="0"
         d="m 120.751,192.833 c 2.103,-0.717 4.314,-1.089 6.54,-1.11 -0.836,-3.775 -1.291,-7.695 -1.291,-11.724 0,-3.813 0.4,-7.531 1.152,-11.12 -5.074,-2.763 -11.784,-2.238 -16.785,1.628 l -67.609,52.202 c -7.05,5.452 -11.804,17.309 -10.039,26.047 l 10.934,53.508 c 1.76,8.734 9.004,11.021 15.799,5.258 L 73.83,295.333 c -0.009,-4.139 0.661,-8.188 2.112,-11.73 l 32.206,-78.593 c 2.349,-5.735 6.995,-10.258 12.603,-12.177 z"
         id="path3102" />
      <path
         style="fill:#666666;fill-opacity:1"
         inkscape:connector-curvature="0"
         d="m 229.717,122.392 c 0.831,6.137 -0.932,12.669 -4.826,17.142 -1.408,1.61 -3.064,3.026 -4.896,4.184 5.106,5.625 9.034,12.337 11.415,19.741 5.744,-0.199 11.249,-4.034 13.635,-9.854 l 32.451,-79.13 c 3.38,-8.244 1.568,-20.943 -4.325,-27.629 L 236.947,5.95 C 231.06,-0.74 223.636,0.89 220.631,9.275 l -6.352,17.74 c 2.074,3.585 3.525,7.421 4.035,11.214 l 11.403,84.163 z"
         id="path3104" />
      <path
         style="fill:#666666;fill-opacity:1"
         inkscape:connector-curvature="0"
         d="m 226.798,329.614 c -3.587,-2.066 -6.76,-4.673 -9.103,-7.697 L 165.74,254.729 c -3.791,-4.899 -5.364,-11.155 -4.226,-16.976 0.432,-2.185 1.219,-4.282 2.318,-6.218 -7.44,-2.332 -14.184,-6.234 -19.852,-11.313 -4.942,3 -7.857,9.063 -7.008,15.332 l 11.402,84.657 c 1.196,8.83 9.085,18.876 17.536,21.72 l 51.803,17.278 c 8.443,2.851 14.048,-2.285 12.457,-11.05 l -3.372,-18.545 z"
         id="path3106" />
      <path
         style="fill:#666666;fill-opacity:1"
         inkscape:connector-curvature="0"
         d="m 130.283,237.586 c -0.831,-6.141 0.932,-12.156 4.829,-16.625 1.51,-1.727 3.308,-3.148 5.298,-4.254 -5.199,-5.604 -9.216,-12.314 -11.673,-19.736 -5.797,0.08 -11.375,3.85 -13.78,9.719 l -32.452,78.97 c -3.38,8.247 -1.569,20.867 4.327,27.553 l 36.223,40.857 c 5.89,6.687 13.307,5.037 16.312,-3.35 l 6.355,-17.748 c -2.077,-3.584 -3.521,-7.428 -4.037,-11.222 l -11.402,-84.164 z"
         id="path3108" />
      <path
         style="fill:#666666;fill-opacity:1"
         inkscape:connector-curvature="0"
         d="m 295.336,286.167 c -4.141,0.006 -8.188,-0.664 -11.73,-2.112 l -78.586,-32.21 c -5.731,-2.347 -10.225,-6.979 -12.148,-12.589 -0.721,-2.109 -1.087,-4.326 -1.102,-6.558 -3.79,0.843 -7.726,1.302 -11.77,1.302 -3.8,0 -7.507,-0.396 -11.085,-1.145 -2.771,5.068 -2.261,11.77 1.604,16.771 l 52.2,67.614 c 5.451,7.052 17.307,11.802 26.043,10.039 l 53.502,-10.936 c 8.738,-1.758 11.023,-9.007 5.267,-15.805 l -12.195,-14.371 z"
         id="path3110" />
      <path
         style="fill:#666666;fill-opacity:1"
         inkscape:connector-curvature="0"
         d="m 350.715,220.622 -17.744,-6.353 c -3.583,2.074 -7.425,3.521 -11.218,4.035 l -84.159,11.402 c -6.137,0.832 -12.66,-0.932 -17.135,-4.826 -1.607,-1.406 -3.021,-3.061 -4.176,-4.889 -5.628,5.109 -12.344,9.037 -19.752,11.419 0.197,5.739 4.021,11.239 9.837,13.624 L 285.5,277.49 c 8.246,3.379 20.945,1.568 27.631,-4.326 l 40.896,-36.225 c 6.689,-5.889 5.075,-13.311 -3.312,-16.317 z"
         id="path3112" />
      <path
         style="fill:#666666;fill-opacity:1"
         inkscape:connector-curvature="0"
         d="m 348.161,129.816 -18.545,3.372 c -2.065,3.589 -4.668,6.763 -7.696,9.103 l -67.186,51.957 c -4.896,3.79 -11.02,5.288 -16.838,4.15 -2.232,-0.44 -4.355,-1.27 -6.301,-2.424 -2.312,7.471 -6.203,14.239 -11.277,19.935 2.953,4.987 8.961,7.96 15.244,7.108 l 84.651,-11.401 c 8.83,-1.195 18.874,-9.085 21.718,-17.534 l 17.278,-51.804 c 2.851,-8.447 -2.283,-14.051 -11.048,-12.462 z"
         id="path3114" />
      <path
         style="fill:#666666;fill-opacity:1"
         inkscape:connector-curvature="0"
         d="m 239.343,166.982 c -2.159,0.737 -4.421,1.08 -6.688,1.051 0.871,3.851 1.347,7.852 1.347,11.966 0,3.75 -0.384,7.41 -1.11,10.944 5.049,2.834 11.73,2.4 16.743,-1.475 l 67.61,-52.203 c 7.051,-5.451 11.802,-17.306 10.039,-26.044 L 316.347,57.72 c -1.754,-8.739 -9.007,-11.027 -15.802,-5.269 l -14.373,12.193 c 0.004,4.142 -0.658,8.192 -2.113,11.732 l -32.205,78.591 c -2.349,5.731 -6.903,10.089 -12.511,12.015 z"
         id="path3116" />
    </g>
    <g
       id="g3954"
       transform="matrix(1.4757683,0,0,1.4757683,-97.904791,-472.29333)">
      <path
         transform="translate(0,912.36218)"
         inkscape:connector-curvature="0"
         id="path3182"
         d="m 142.14286,39.642857 -1.07143,55 L 169.28571,92.5 178.92857,81.785714 179.28571,67.5 l 7.14286,0.357143 3.92857,8.571428 1.07143,20 15.71429,-0.714285 2.5,-5.714286 -0.35715,-16.071429 8.92858,0.714286 L 230.35714,95 295.71429,92.857143 295.35714,77.5 279.28571,76.428571 283.57143,70.714286 283.21429,57.857143 294.64286,56.071428 295.71429,38.928571 258.92857,38.571428 257.5,45 237.14286,45 237.5,38.214286 181.42857,38.571428 179.64286,47.5 167.5,38.571428 z"
         style="fill:#00ff00;fill-opacity:1;stroke:#000000;stroke-width:1px;stroke-linecap:butt;stroke-linejoin:miter;stroke-opacity:1" />
      <path
         transform="translate(0,912.36218)"
         inkscape:connector-curvature="0"
         id="path3952"
         d="m 322.14286,38.571428 -0.71429,54.642858 37.5,0 0.71429,-15 13.92857,18.214285 129.64286,-2.857143 8.21428,-10 -0.35714,-45.714285 -25.35714,1.428571 -12.5,17.5 -12.14286,-18.214286 -25.71429,0 -1.07143,38.571429 -17.14285,-0.714286 0,-37.857143 L 400,38.928571 398.21429,44.642857 378.57143,45 377.5,38.928571 l -16.42857,0 -0.71429,15.714286 -3.21428,-1.428571 L 347.5,38.571428 z"
         style="fill:#00ff00;fill-opacity:1;stroke:#000000;stroke-width:1px;stroke-linecap:butt;stroke-linejoin:miter;stroke-opacity:1" />
      <text
         sodipodi:linespacing="125%"
         id="text3178"
         y="1003.0765"
         x="140.71428"
         style="font-size:40px;font-style:normal;font-weight:normal;line-height:125%;letter-spacing:0px;word-spacing:0px;fill:#000000;fill-opacity:1;stroke:none;font-family:Sans"
         xml:space="preserve"><tspan
           style="font-size:72px;font-style:normal;font-variant:normal;font-weight:normal;font-stretch:normal;font-family:Dimitri Swank;-inkscape-font-specification:Dimitri Swank"
           y="1003.0765"
           x="140.71428"
           id="tspan3180"
           sodipodi:role="line">byte atlas</tspan></text>
    </g>
  </g>
</svg>
